<svg width="20px" height="20px" viewBox="0 0 20 20" fill="none" xmlns="http://www.w3.org/2000/svg">
  <g>
    <path d="M 14.291 12.98 L 11.311 10 L 14.291 7.02 C 14.486 6.825 14.486 6.508 14.291 6.313 C 14.096 6.118 13.779 6.118 13.584 6.313 L 9.897 10 L 13.584 13.687 C 13.779 13.882 14.096 13.882 14.291 13.687 C 14.486 13.492 14.486 13.175 14.291 12.98 Z M 9.957 12.98 L 6.977 10 L 9.957 7.02 C 10.152 6.825 10.152 6.508 9.957 6.313 C 9.761 6.118 9.445 6.118 9.25 6.313 L 5.916 9.646 L 5.563 10 L 9.25 13.687 C 9.445 13.882 9.761 13.882 9.957 13.687 C 10.152 13.492 10.152 13.175 9.957 12.98 Z" fill="#042121"></path>
  </g>
</svg>