<svg width="20px" height="20px" viewBox="0 0 20 20" fill="none" xmlns="http://www.w3.org/2000/svg">
  <g transform="translate(0.5, 0.5)">
    <path d="M -0.5 4.206 C -0.5 1.607 1.607 -0.5 4.206 -0.5 L 30.088 -0.5 L 30.088 19.5 L 4.206 19.5 C 1.607 19.5 -0.5 17.393 -0.5 14.794 L -0.5 4.206 Z M 9.543 6.52 L 12.523 9.5 L 9.543 12.48 C 9.348 12.675 9.348 12.992 9.543 13.187 C 9.738 13.382 10.055 13.382 10.25 13.187 L 13.937 9.5 L 10.25 5.813 C 10.055 5.618 9.738 5.618 9.543 5.813 C 9.348 6.008 9.348 6.325 9.543 6.52 Z M 5.209 6.52 L 8.189 9.5 L 5.209 12.48 C 5.014 12.675 5.014 12.992 5.209 13.187 C 5.405 13.382 5.721 13.382 5.916 13.187 L 9.25 9.854 L 9.603 9.5 L 5.916 5.813 C 5.721 5.618 5.405 5.618 5.209 5.813 C 5.014 6.008 5.014 6.325 5.209 6.52 Z" fill="#042121"></path>
  </g>
</svg>