<svg width="20" height="20" viewBox="0 0 20 20" fill="none" xmlns="http://www.w3.org/2000/svg">
    <path d="M10 13.5V14.5" stroke="#042121" />
    <path d="M9 13.5V14.5" stroke="#042121" />
    <path d="M11 13.5V14.5" stroke="#042121" />
    <path d="M12 13.5V14.5" stroke="#042121" />
    <path d="M13 12.5V13.5" stroke="#042121" />
    <path d="M14 11.5V12.5" stroke="#042121" />
    <path d="M14 10.5V11.5" stroke="#042121" />
    <path d="M14 9.5V10.5" stroke="#042121" />
    <path d="M14 8.5V9.5" stroke="#042121" />
    <path d="M14 7.5V8.5" stroke="#042121" />
    <path d="M13 6.5V7.5" stroke="#042121" />
    <path d="M12 5.5V6.5" stroke="#042121" />
    <path d="M11 5.5V6.5" stroke="#042121" />
    <path d="M10 5.5V6.5" stroke="#042121" />
    <path d="M9 5.5V6.5" stroke="#042121" />
    <path d="M8 5.5V6.5" stroke="#042121" />
    <path d="M7 6.5V7.5" stroke="#042121" />
    <path d="M6 7.5V8.5" stroke="#042121" />
    <path d="M6 8.5V9.5" stroke="#042121" />
    <path d="M6 9.5V10.5" stroke="#042121" />
    <path d="M6 10.5V11.5" stroke="#042121" />
    <path d="M6 11.5V12.5" stroke="#042121" />
    <path d="M7 12.5V13.5" stroke="#042121" />
    <path d="M8 13.5V14.5" stroke="#042121" />
</svg>